<svg width="12" height="11" viewBox="0 0 12 11" fill="none" xmlns="http://www.w3.org/2000/svg">
<rect x="0.804688" width="10.4074" height="10.4074" rx="5.20368" fill="#1D1D1B"/>
<path d="M6.00867 3.86973C5.27034 3.86973 4.67481 4.4654 4.67481 5.20389C4.67481 5.94238 5.27034 6.53805 6.00867 6.53805C6.74699 6.53805 7.34253 5.94238 7.34253 5.20389C7.34253 4.4654 6.74699 3.86973 6.00867 3.86973ZM6.00867 6.07127C5.53154 6.07127 5.14149 5.68228 5.14149 5.20389C5.14149 4.7255 5.53038 4.33651 6.00867 4.33651C6.48695 4.33651 6.87585 4.7255 6.87585 5.20389C6.87585 5.68228 6.48579 6.07127 6.00867 6.07127ZM7.70821 3.81516C7.70821 3.98817 7.5689 4.12635 7.39709 4.12635C7.22412 4.12635 7.08597 3.98701 7.08597 3.81516C7.08597 3.64331 7.22528 3.50397 7.39709 3.50397C7.5689 3.50397 7.70821 3.64331 7.70821 3.81516ZM8.59164 4.13099C8.57191 3.71414 8.47672 3.34489 8.1714 3.04067C7.86725 2.73645 7.49809 2.64124 7.08133 2.62034C6.6518 2.59595 5.36438 2.59595 4.93485 2.62034C4.51925 2.64008 4.15009 2.73529 3.84478 3.03951C3.53946 3.34373 3.44543 3.71298 3.42453 4.12983C3.40016 4.55945 3.40016 5.84716 3.42453 6.27679C3.44427 6.69364 3.53946 7.06289 3.84478 7.36711C4.15009 7.67133 4.51809 7.76654 4.93485 7.78744C5.36438 7.81182 6.6518 7.81182 7.08133 7.78744C7.49809 7.7677 7.86725 7.67249 8.1714 7.36711C8.47555 7.06289 8.57075 6.69364 8.59164 6.27679C8.61602 5.84716 8.61602 4.56061 8.59164 4.13099ZM8.03674 6.73776C7.94619 6.96535 7.7709 7.14068 7.5422 7.23241C7.19974 7.36827 6.38712 7.33692 6.00867 7.33692C5.63022 7.33692 4.81644 7.36711 4.47514 7.23241C4.2476 7.14184 4.07231 6.96651 3.9806 6.73776C3.84478 6.39523 3.87612 5.58242 3.87612 5.20389C3.87612 4.82536 3.84594 4.01139 3.9806 3.67002C4.07115 3.44243 4.24644 3.2671 4.47514 3.17537C4.8176 3.03951 5.63022 3.07086 6.00867 3.07086C6.38712 3.07086 7.2009 3.04067 7.5422 3.17537C7.76974 3.26594 7.94503 3.44127 8.03674 3.67002C8.17256 4.01255 8.14122 4.82536 8.14122 5.20389C8.14122 5.58242 8.17256 6.39639 8.03674 6.73776Z" fill="white"/>
</svg>
