<svg width="12" height="11" viewBox="0 0 12 11" fill="none" xmlns="http://www.w3.org/2000/svg">
<rect x="0.796875" width="10.4074" height="10.4074" rx="5.20368" fill="#1D1D1B"/>
<path d="M4.65376 3.23101C4.65376 3.57837 4.37274 3.85996 4.0261 3.85996C3.67945 3.85996 3.39844 3.57837 3.39844 3.23101C3.39844 2.88364 3.67945 2.60205 4.0261 2.60205C4.37274 2.60205 4.65376 2.88364 4.65376 3.23101Z" fill="white"/>
<path d="M3.48427 4.32227H4.55719V7.80573H3.48427V4.32227Z" fill="white"/>
<path d="M6.2846 4.32227H5.21168V7.80573H6.2846C6.2846 7.80573 6.2846 6.70909 6.2846 6.02342C6.2846 5.61186 6.41576 5.19851 6.93908 5.19851C7.53051 5.19851 7.52695 5.73709 7.52419 6.15434C7.52059 6.69974 7.52919 7.25631 7.52919 7.80573H8.60212V5.96724C8.59303 4.79331 8.30752 4.25239 7.36825 4.25239C6.81045 4.25239 6.46469 4.52372 6.2846 4.76919V4.32227Z" fill="white"/>
</svg>
