<svg width="62" height="14" viewBox="0 0 62 14" fill="none" xmlns="http://www.w3.org/2000/svg">
<path fill-rule="evenodd" clip-rule="evenodd" d="M1.64731 0C1.17871 0 0.798828 0.379879 0.798828 0.848484V8.48485C0.798828 8.95345 1.17871 9.33333 1.64731 9.33333H5.46568V13.1513C5.46568 13.6199 5.84556 13.9998 6.31416 13.9998H13.9505C14.4191 13.9998 14.799 13.6199 14.799 13.1513V5.51498C14.799 5.04637 14.4191 4.66649 13.9505 4.66649H10.1322V0.848485C10.1322 0.37988 9.75228 0 9.28368 0H1.64731ZM10.1322 4.66649H6.31416C5.84556 4.66649 5.46568 5.04637 5.46568 5.51498V9.33333H9.28368C9.75228 9.33333 10.1322 8.95345 10.1322 8.48485V4.66649Z" fill="#1D1D1B"/>
<g clip-path="url(#clip0_2031_10648)">
<path d="M25.2955 13.4614H22.3663V3.98446H18.834V1.39984H28.8278V3.98446H25.2955V13.4614ZM31.7918 4.50138V6.74138C31.9412 6.17853 32.1365 5.7133 32.3777 5.34569C32.6304 4.96661 32.8946 4.70815 33.1703 4.5703C33.4575 4.43246 33.7619 4.35205 34.0835 4.32907C34.4052 4.3061 34.7153 4.36353 35.014 4.50138V7.086C34.095 6.72991 33.3254 6.69545 32.7051 6.98261C32.0962 7.2583 31.7918 7.758 31.7918 8.48169V13.4614H29.0349V4.50138H31.7918ZM35.8314 2.08907C35.8314 1.64107 35.9922 1.25625 36.3138 0.934611C36.6355 0.612966 37.0203 0.452148 37.4683 0.452148C37.9163 0.452148 38.3011 0.612966 38.6228 0.934611C38.9444 1.25625 39.1052 1.64107 39.1052 2.08907C39.1052 2.52559 38.9444 2.9104 38.6228 3.24353C38.3011 3.56517 37.9163 3.726 37.4683 3.726C37.0203 3.726 36.6355 3.56517 36.3138 3.24353C35.9922 2.9104 35.8314 2.52559 35.8314 2.08907ZM38.8468 13.4614H36.0898V4.50138H38.8468V13.4614ZM46.88 6.99984V0.710611H49.6369V13.4614H46.88V10.9629C46.6387 11.7785 46.2482 12.4275 45.7083 12.91C45.1684 13.3925 44.5309 13.6337 43.7957 13.6337C42.7274 13.6337 41.8429 13.1915 41.1421 12.3069C40.4414 11.4109 40.091 10.3024 40.091 8.98138C40.091 7.66037 40.4414 6.5576 41.1421 5.67307C41.8429 4.77707 42.7274 4.32907 43.7957 4.32907C44.5309 4.32907 45.1684 4.5703 45.7083 5.05276C46.2482 5.53523 46.6387 6.18423 46.88 6.99984ZM44.8295 11.118C45.4269 11.118 45.915 10.917 46.2941 10.5149C46.6847 10.1129 46.88 9.60169 46.88 8.98138C46.88 8.36107 46.6847 7.84991 46.2941 7.44784C45.915 7.04577 45.4269 6.84477 44.8295 6.84477C44.3126 6.84477 43.8703 7.05153 43.5027 7.46507C43.1352 7.86714 42.9514 8.37254 42.9514 8.98138C42.9514 9.59022 43.1352 10.1014 43.5027 10.5149C43.8703 10.917 44.3126 11.118 44.8295 11.118ZM55.6201 4.32907C57.1708 4.32907 58.4057 4.89194 59.3247 6.01769C60.2437 7.14345 60.5538 8.46446 60.2551 9.98077H53.7591C53.92 10.3828 54.1784 10.7045 54.5345 10.9457C54.9021 11.1754 55.3214 11.2903 55.7924 11.2903C56.6309 11.2903 57.257 10.9572 57.6705 10.2909L59.9105 11.3248C59.4855 12.0255 58.9111 12.5884 58.1874 13.0134C57.4637 13.4269 56.6367 13.6337 55.7062 13.6337C54.3392 13.6337 53.1905 13.1915 52.2601 12.3069C51.3411 11.4109 50.8816 10.3024 50.8816 8.98138C50.8816 7.66037 51.3354 6.5576 52.2428 5.67307C53.1503 4.77707 54.2761 4.32907 55.6201 4.32907ZM55.6201 6.67246C55.218 6.67246 54.8561 6.78731 54.5345 7.01707C54.2129 7.23531 53.9659 7.534 53.7936 7.91307H57.4637C57.1306 7.086 56.5161 6.67246 55.6201 6.67246Z" fill="#1D1D1B"/>
</g>
<defs>
<clipPath id="clip0_2031_10648">
<rect width="42.5385" height="14" fill="white" transform="translate(18.6602)"/>
</clipPath>
</defs>
</svg>
