<svg width="12" height="11" viewBox="0 0 12 11" fill="none" xmlns="http://www.w3.org/2000/svg">
<rect x="0.787109" width="10.4074" height="10.4074" rx="5.20368" fill="#1D1D1B"/>
<path d="M8.05747 3.99856C8.06077 4.04557 8.06077 4.0926 8.06077 4.13961C8.06077 5.57362 6.98768 7.22594 5.02638 7.22594C4.42214 7.22594 3.86084 7.04794 3.38867 6.73898C3.47452 6.74905 3.55706 6.75241 3.64621 6.75241C4.14478 6.75241 4.60375 6.58114 4.97025 6.28896C4.50139 6.27888 4.10847 5.96656 3.97309 5.53668C4.03913 5.54675 4.10517 5.55347 4.17451 5.55347C4.27026 5.55347 4.36602 5.54003 4.45517 5.51654C3.9665 5.41578 3.59998 4.9792 3.59998 4.45194V4.43851C3.74195 4.51911 3.90706 4.56948 4.08204 4.57619C3.79478 4.3814 3.60659 4.04893 3.60659 3.67279C3.60659 3.4713 3.65941 3.28659 3.75186 3.12538C4.27686 3.78362 5.066 4.21348 5.95088 4.26051C5.93438 4.17991 5.92447 4.09596 5.92447 4.012C5.92447 3.4142 6.39994 2.92725 6.99096 2.92725C7.29803 2.92725 7.57538 3.05822 7.7702 3.2698C8.01122 3.22278 8.24235 3.1321 8.44707 3.00785C8.36782 3.25973 8.19943 3.47131 7.97821 3.60563C8.19283 3.58213 8.40085 3.52167 8.59235 3.43772C8.44709 3.65264 8.26548 3.84406 8.05747 3.99856Z" fill="white"/>
</svg>
